<svg width="19" height="19" viewBox="0 0 19 19" fill="none" xmlns="http://www.w3.org/2000/svg">
<path d="M17.1499 8.24998H10.75V1.84995C10.75 1.15989 10.19 0.6 9.49992 0.6C8.80991 0.6 8.24998 1.15994 8.24998 1.84995V8.24998H1.84995C1.15994 8.24998 0.6 8.80991 0.6 9.49992C0.6 10.19 1.15989 10.75 1.84995 10.75H8.24998V17.1499C8.24998 17.84 8.80986 18.4 9.49992 18.4C10.1901 18.4 10.75 17.8401 10.75 17.1499V10.75H17.1499C17.8401 10.75 18.4 10.1901 18.4 9.49992C18.4 8.80986 17.84 8.24998 17.1499 8.24998Z" fill="white" stroke="white" stroke-width="0.8"/>
</svg>
